<mxfile host="app.diagrams.net" modified="2024-03-21T04:20:34.643Z" agent="Mozilla/5.0 (Windows NT 10.0; Win64; x64) AppleWebKit/537.36 (KHTML, like Gecko) Chrome/121.0.0.0 Safari/537.36" etag="KiACU74otVvKERZzyPQa" version="23.1.5" type="github">
  <diagram name="Page-1" id="mwxQxdbu_AP-3gvjynkq">
    <mxGraphModel dx="1434" dy="738" grid="1" gridSize="10" guides="1" tooltips="1" connect="1" arrows="1" fold="1" page="1" pageScale="1" pageWidth="850" pageHeight="1100" math="0" shadow="0">
      <root>
        <mxCell id="0" />
        <mxCell id="1" parent="0" />
        <mxCell id="HuKLBdStqCaA61EODVo5-5" value="" style="edgeStyle=orthogonalEdgeStyle;rounded=0;orthogonalLoop=1;jettySize=auto;html=1;" edge="1" parent="1" source="HuKLBdStqCaA61EODVo5-1" target="HuKLBdStqCaA61EODVo5-4">
          <mxGeometry relative="1" as="geometry" />
        </mxCell>
        <mxCell id="HuKLBdStqCaA61EODVo5-1" value="Start" style="ellipse;whiteSpace=wrap;html=1;" vertex="1" parent="1">
          <mxGeometry x="80" y="130" width="120" height="80" as="geometry" />
        </mxCell>
        <mxCell id="HuKLBdStqCaA61EODVo5-7" value="" style="edgeStyle=orthogonalEdgeStyle;rounded=0;orthogonalLoop=1;jettySize=auto;html=1;" edge="1" parent="1" source="HuKLBdStqCaA61EODVo5-4" target="HuKLBdStqCaA61EODVo5-6">
          <mxGeometry relative="1" as="geometry" />
        </mxCell>
        <mxCell id="HuKLBdStqCaA61EODVo5-4" value="Establish SSH Connection" style="whiteSpace=wrap;html=1;" vertex="1" parent="1">
          <mxGeometry x="280" y="140" width="120" height="60" as="geometry" />
        </mxCell>
        <mxCell id="HuKLBdStqCaA61EODVo5-11" value="" style="edgeStyle=orthogonalEdgeStyle;rounded=0;orthogonalLoop=1;jettySize=auto;html=1;" edge="1" parent="1" source="HuKLBdStqCaA61EODVo5-6" target="HuKLBdStqCaA61EODVo5-10">
          <mxGeometry relative="1" as="geometry" />
        </mxCell>
        <mxCell id="HuKLBdStqCaA61EODVo5-6" value="Fetch repository of the project" style="whiteSpace=wrap;html=1;" vertex="1" parent="1">
          <mxGeometry x="480" y="140" width="120" height="60" as="geometry" />
        </mxCell>
        <mxCell id="HuKLBdStqCaA61EODVo5-13" value="" style="edgeStyle=orthogonalEdgeStyle;rounded=0;orthogonalLoop=1;jettySize=auto;html=1;" edge="1" parent="1" source="HuKLBdStqCaA61EODVo5-10" target="HuKLBdStqCaA61EODVo5-12">
          <mxGeometry relative="1" as="geometry" />
        </mxCell>
        <mxCell id="HuKLBdStqCaA61EODVo5-10" value="Check and install missing dependency" style="whiteSpace=wrap;html=1;" vertex="1" parent="1">
          <mxGeometry x="480" y="280" width="120" height="60" as="geometry" />
        </mxCell>
        <mxCell id="HuKLBdStqCaA61EODVo5-15" value="" style="edgeStyle=orthogonalEdgeStyle;rounded=0;orthogonalLoop=1;jettySize=auto;html=1;" edge="1" parent="1" source="HuKLBdStqCaA61EODVo5-12" target="HuKLBdStqCaA61EODVo5-14">
          <mxGeometry relative="1" as="geometry" />
        </mxCell>
        <mxCell id="HuKLBdStqCaA61EODVo5-12" value="Set required environment variable" style="whiteSpace=wrap;html=1;" vertex="1" parent="1">
          <mxGeometry x="280" y="280" width="120" height="60" as="geometry" />
        </mxCell>
        <mxCell id="HuKLBdStqCaA61EODVo5-17" value="" style="edgeStyle=orthogonalEdgeStyle;rounded=0;orthogonalLoop=1;jettySize=auto;html=1;" edge="1" parent="1" source="HuKLBdStqCaA61EODVo5-14" target="HuKLBdStqCaA61EODVo5-16">
          <mxGeometry relative="1" as="geometry" />
        </mxCell>
        <mxCell id="HuKLBdStqCaA61EODVo5-14" value="Initiate and Run&lt;br&gt;the application" style="whiteSpace=wrap;html=1;" vertex="1" parent="1">
          <mxGeometry x="80" y="280" width="120" height="60" as="geometry" />
        </mxCell>
        <mxCell id="HuKLBdStqCaA61EODVo5-16" value="End" style="ellipse;whiteSpace=wrap;html=1;" vertex="1" parent="1">
          <mxGeometry x="75" y="410" width="130" height="80" as="geometry" />
        </mxCell>
      </root>
    </mxGraphModel>
  </diagram>
</mxfile>
